<svg xmlns="http://www.w3.org/2000/svg" viewBox="0 0 64 64" width="64" height="64" role="img" aria-label="Budget App icon">
  <defs>
    <linearGradient id="bg" x1="0" y1="0" x2="1" y2="1">
      <stop offset="0%" stop-color="#1f8b4c" />
      <stop offset="100%" stop-color="#146c3c" />
    </linearGradient>
  </defs>
  <rect x="4" y="4" width="56" height="56" rx="14" fill="url(#bg)" />
  <circle cx="32" cy="32" r="18" fill="#e9f7ef" opacity="0.95" />
  <path d="M34.7 17.5v4.1c3.6.5 6.1 2.9 6.6 6.3h-5.2c-.3-1.2-1.4-1.9-3.1-1.9-1.8 0-2.9.7-2.9 1.8 0 1 .9 1.5 3.5 2.1l1.8.4c4.8 1.1 7.1 3.1 7.1 6.8 0 4-2.8 6.7-7.8 7.3v4.2h-4.5v-4.2c-4.4-.6-7.2-3.2-7.6-6.9h5.3c.4 1.6 1.7 2.6 3.8 2.6 2 0 3.3-.8 3.3-2.1 0-1.1-.8-1.7-3.1-2.2l-2-.5c-4.6-1.1-7.1-3.3-7.1-6.8 0-3.8 2.7-6.4 7.4-7v-4.1z" fill="#156f3f" />
</svg>
